<?xml version="1.0" encoding="utf-8"?>
<!-- Generator: Adobe Illustrator 17.1.0, SVG Export Plug-In . SVG Version: 6.00 Build 0)  -->
<!DOCTYPE svg PUBLIC "-//W3C//DTD SVG 1.1//EN" "http://www.w3.org/Graphics/SVG/1.1/DTD/svg11.dtd">
<svg version="1.1" id="Layer_1" xmlns="http://www.w3.org/2000/svg" xmlns:xlink="http://www.w3.org/1999/xlink" x="0px" y="0px"
	 viewBox="0 0 123.5 86.6" enable-background="new 0 0 123.5 86.6" xml:space="preserve">
<g>
	<g>
		<path fill-rule="evenodd" clip-rule="evenodd" fill="#FFFFFF" d="M45.4,13.7C39.6,8.5,33.2,3.9,26.5,0c3.3,6.8,6,13.9,8.2,21.2
			C38.1,18.5,41.7,16,45.4,13.7"/>
		<path fill-rule="evenodd" clip-rule="evenodd" fill="#FFFFFF" d="M26,38c9.5,1.1,18,7,22.4,15.8c1.7-5.3,3.4-10.7,5.1-16
			C44.5,35.9,35.1,35.9,26,38"/>
		<path fill-rule="evenodd" clip-rule="evenodd" fill="#FFFFFF" d="M19,38c18.7-6.3,39.1-4,55.9,6.3c-4.2-7.7-10.1-14.5-17.1-19.8
			C43.9,25.3,30.4,29.9,19,38"/>
		<path fill-rule="evenodd" clip-rule="evenodd" fill="#FFFFFF" d="M62.5,17.6c-0.6,1.8-1.2,3.7-1.8,5.5c0,0.1,0,0.2,0,0.3
			c13.8-1.5,27.7,1.6,39.5,8.9C89.3,23.8,76.2,18.7,62.5,17.6"/>
		<path fill-rule="evenodd" clip-rule="evenodd" fill="#FFFFFF" d="M65.6,8.2c-0.7,1.9-1.3,3.9-1.9,5.9c14.3-0.8,28.5,2.8,40.8,10.3
			C93.2,15.5,79.8,10,65.6,8.2"/>
		<path fill-rule="evenodd" clip-rule="evenodd" fill="#FFFFFF" d="M58.4,22.6c1.9-5.7,3.7-11.3,5.7-17
			c-14.5,6.6-27.7,15.5-39.2,26.4c10-5.6,21.3-8.8,32.8-9.4L58.4,22.6L58.4,22.6z"/>
	</g>
</g>
<g>
	<g>
		<path fill="#FFFFFF" d="M1.4,84.5H7v1.3H0V73.1h1.4V84.5z"/>
		<path fill="#FFFFFF" d="M13.5,73.1h6.6v1.3h-5.2v3.8H20v1.3h-5.1v5h5.2v1.3h-6.6V73.1z"/>
		<path fill="#FFFFFF" d="M29.6,82.2L28,85.9h-1.6l5.9-13.4l5.8,13.4h-1.6L35,82.2H29.6z M32.3,75.8l-2.2,5.1h4.3L32.3,75.8z"/>
		<path fill="#FFFFFF" d="M46.9,82.8l3.7-9.8h1.5l-5.2,13.6l-5.2-13.6h1.5L46.9,82.8z"/>
		<path fill="#FFFFFF" d="M58.6,73.1h6.6v1.3H60v3.8h5.1v1.3H60v5h5.2v1.3h-6.6V73.1z"/>
		<path fill="#FFFFFF" d="M78.6,75.6c-0.5-0.9-1.1-1.4-2.2-1.4c-1.1,0-2.1,0.8-2.1,2c0,1.1,1.1,1.6,2,2l0.8,0.4
			c1.7,0.7,3.1,1.6,3.1,3.6c0,2.2-1.8,4-4,4c-2.1,0-3.6-1.3-4-3.3l1.4-0.4c0.2,1.3,1.2,2.4,2.6,2.4c1.4,0,2.6-1.1,2.6-2.5
			c0-1.5-1.2-2-2.4-2.6l-0.8-0.3c-1.5-0.7-2.8-1.4-2.8-3.3c0-2,1.7-3.3,3.6-3.3c1.4,0,2.6,0.7,3.3,2L78.6,75.6z"/>
		<path fill="#FFFFFF" d="M90.8,85.9h-1.4V74.4h-3.1v-1.3h7.6v1.3h-3.1V85.9z"/>
		<path fill="#FFFFFF" d="M101,82.2l-1.5,3.6h-1.6l5.9-13.4l5.8,13.4H108l-1.5-3.6H101z M103.8,75.8l-2.2,5.1h4.3L103.8,75.8z"/>
		<path fill="#FFFFFF" d="M117.5,85.9h-1.4V73.1h1.9c2.4,0,4.7,0.6,4.7,3.5c0,2-1.2,3.4-3.2,3.5l4.1,5.7h-1.8l-3.9-5.6h-0.4V85.9z
			 M117.5,79h0.4c1.6,0,3.2-0.3,3.2-2.3c0-2.1-1.5-2.3-3.3-2.3h-0.4V79z"/>
	</g>
</g>
</svg>
