<?xml version="1.0" encoding="utf-8"?>
<!-- Generator: Adobe Illustrator 21.1.0, SVG Export Plug-In . SVG Version: 6.00 Build 0)  -->
<svg version="1.1" id="Layer_1" xmlns="http://www.w3.org/2000/svg" xmlns:xlink="http://www.w3.org/1999/xlink" x="0px" y="0px"
	 viewBox="0 0 121.5 86.1" style="enable-background:new 0 0 121.5 86.1;" xml:space="preserve">
<style type="text/css">
	.st0{fill:#0032BF;}
</style>
<g>
	<g>
		<path class="st0" d="M46.6,13.7C40.7,8.5,34.4,3.9,27.7,0c3.3,6.8,6,13.9,8.2,21.2C39.3,18.5,42.9,16,46.6,13.7"/>
		<path class="st0" d="M27.2,38c9.5,1.1,18,7,22.4,15.8c1.7-5.3,3.4-10.7,5.1-16C45.6,35.9,36.3,35.9,27.2,38"/>
		<path class="st0" d="M20.1,38c18.7-6.3,39.1-4,55.9,6.3c-4.2-7.7-10-14.4-17-19.8C45,25.3,31.6,29.9,20.1,38"/>
		<path class="st0" d="M63.7,17.6c-0.6,1.8-1.2,3.7-1.8,5.5c0,0.1,0,0.2,0,0.3c13.8-1.5,27.7,1.6,39.5,8.9
			C90.4,23.8,77.3,18.7,63.7,17.6"/>
		<path class="st0" d="M66.8,8.2c-0.7,1.9-1.3,3.9-1.9,5.9c14.3-0.8,28.5,2.8,40.8,10.3C94.4,15.5,80.9,10,66.8,8.2"/>
		<path class="st0" d="M59.6,22.6c1.9-5.7,3.7-11.3,5.7-17C50.8,12.2,37.6,21.1,26.1,32c10-5.6,21.3-8.8,32.8-9.4H59.6L59.6,22.6z"
			/>
	</g>
</g>
<g>
	<g>
		<path class="st0" d="M1.4,84.5H5v1.3H0V73.1h1.4V84.5z"/>
		<path class="st0" d="M11.5,73.1h6.6v1.3h-5.2v3.8H18v1.3h-5.1v5h5.2v1.3h-6.6C11.5,85.8,11.5,73.1,11.5,73.1z"/>
		<path class="st0" d="M27.6,82.2L26,85.9h-1.6l5.9-13.4l5.8,13.4h-1.6L33,82.2H27.6z M30.3,75.8l-2.2,5.1h4.3L30.3,75.8z"/>
		<path class="st0" d="M44.9,82.8l3.7-9.8h1.5l-5.2,13.6L39.7,73h1.5L44.9,82.8z"/>
		<path class="st0" d="M56.6,73.1h6.6v1.3H58v3.8h5.1v1.3H58v5h5.2v1.3h-6.6C56.6,85.8,56.6,73.1,56.6,73.1z"/>
		<path class="st0" d="M76.6,75.6c-0.5-0.9-1.1-1.4-2.2-1.4s-2.1,0.8-2.1,2c0,1.1,1.1,1.6,2,2l0.8,0.4c1.7,0.7,3.1,1.6,3.1,3.6
			c0,2.2-1.8,4-4,4c-2.1,0-3.6-1.3-4-3.3l1.4-0.4c0.2,1.3,1.2,2.4,2.6,2.4s2.6-1.1,2.6-2.5c0-1.5-1.2-2-2.4-2.6l-0.8-0.3
			c-1.5-0.7-2.8-1.4-2.8-3.3c0-2,1.7-3.3,3.6-3.3c1.4,0,2.6,0.7,3.3,2L76.6,75.6z"/>
		<path class="st0" d="M88.8,85.9h-1.4V74.4h-3.1v-1.3h7.6v1.3h-3.1V85.9z"/>
		<path class="st0" d="M99,82.2l-1.5,3.6h-1.6l5.9-13.4l5.8,13.4H106l-1.5-3.6H99z M101.8,75.8l-2.2,5.1h4.3L101.8,75.8z"/>
		<path class="st0" d="M115.5,85.9h-1.4V73.1h1.9c2.4,0,4.7,0.6,4.7,3.5c0,2-1.2,3.4-3.2,3.5l4.1,5.7h-1.8l-3.9-5.6h-0.4
			C115.5,80.2,115.5,85.9,115.5,85.9z M115.5,79h0.4c1.6,0,3.2-0.3,3.2-2.3c0-2.1-1.5-2.3-3.3-2.3h-0.4V79H115.5z"/>
	</g>
</g>
</svg>
