<?xml version="1.0" encoding="utf-8"?>
<!-- Generator: Adobe Illustrator 17.1.0, SVG Export Plug-In . SVG Version: 6.00 Build 0)  -->
<!DOCTYPE svg PUBLIC "-//W3C//DTD SVG 1.1//EN" "http://www.w3.org/Graphics/SVG/1.1/DTD/svg11.dtd">
<svg version="1.1" id="Layer_1" xmlns="http://www.w3.org/2000/svg" xmlns:xlink="http://www.w3.org/1999/xlink" x="0px" y="0px"
	 viewBox="0 0 85.5 53.8" enable-background="new 0 0 85.5 53.8" xml:space="preserve">
<g>
	<g>
		<path fill-rule="evenodd" clip-rule="evenodd" fill="#FFFFFF" d="M26.4,13.7C20.6,8.5,14.2,3.9,7.5,0c3.3,6.8,6,13.9,8.2,21.2
			C19.1,18.5,22.7,16,26.4,13.7"/>
		<path fill-rule="evenodd" clip-rule="evenodd" fill="#FFFFFF" d="M7,38c9.5,1.1,18,7,22.4,15.8c1.7-5.3,3.4-10.7,5.1-16
			C25.5,35.9,16.1,35.9,7,38"/>
		<path fill-rule="evenodd" clip-rule="evenodd" fill="#FFFFFF" d="M0,38c18.7-6.3,39.1-4,55.9,6.3c-4.2-7.7-10.1-14.5-17.1-19.8
			C24.9,25.3,11.4,29.9,0,38"/>
		<path fill-rule="evenodd" clip-rule="evenodd" fill="#FFFFFF" d="M43.5,17.6c-0.6,1.8-1.2,3.7-1.8,5.5c0,0.1,0,0.2,0,0.3
			c13.8-1.5,27.7,1.6,39.5,8.9C70.3,23.8,57.2,18.7,43.5,17.6"/>
		<path fill-rule="evenodd" clip-rule="evenodd" fill="#FFFFFF" d="M46.7,8.2c-0.7,1.9-1.3,3.9-1.9,5.9c14.3-0.8,28.5,2.8,40.8,10.3
			C74.2,15.5,60.8,10,46.7,8.2"/>
		<path fill-rule="evenodd" clip-rule="evenodd" fill="#FFFFFF" d="M39.5,22.6c1.9-5.7,3.7-11.3,5.7-17
			C30.7,12.2,17.4,21.2,5.9,32.1c10-5.6,21.3-8.8,32.8-9.4L39.5,22.6L39.5,22.6z"/>
	</g>
</g>
</svg>
