<?xml version="1.0" encoding="utf-8"?>
<!-- Generator: Adobe Illustrator 17.1.0, SVG Export Plug-In . SVG Version: 6.00 Build 0)  -->
<!DOCTYPE svg PUBLIC "-//W3C//DTD SVG 1.1//EN" "http://www.w3.org/Graphics/SVG/1.1/DTD/svg11.dtd">
<svg version="1.1" id="Layer_1" xmlns="http://www.w3.org/2000/svg" xmlns:xlink="http://www.w3.org/1999/xlink" x="0px" y="0px"
	 viewBox="0 0 138.4 138.4" enable-background="new 0 0 138.4 138.4" xml:space="preserve">
<path fill="#FFFFFF" d="M69.2,0C31,0,0,31,0,69.2c0,38.2,31,69.2,69.2,69.2c38.2,0,69.2-31,69.2-69.2C138.4,31,107.4,0,69.2,0z
	 M52.6,84.5c0-10.9,4.8-20.1,11.5-23.3c-1.7-1.4-2.7-3.5-2.7-5.9c0-4.3,3.5-7.8,7.8-7.8c4.3,0,7.8,3.5,7.8,7.8
	c0,2.4-1.1,4.5-2.7,5.9c6.7,3.2,11.5,12.4,11.5,23.3H52.6z"/>
</svg>
