<?xml version="1.0" standalone="no"?>
<!DOCTYPE svg PUBLIC "-//W3C//DTD SVG 20010904//EN"
 "http://www.w3.org/TR/2001/REC-SVG-20010904/DTD/svg10.dtd">
<svg version="1.0" xmlns="http://www.w3.org/2000/svg"
 width="260.000000pt" height="260.000000pt" viewBox="0 0 260.000000 260.000000"
 preserveAspectRatio="xMidYMid meet">
<metadata>
Created by potrace 1.11, written by Peter Selinger 2001-2013
</metadata>
<g transform="translate(0.000000,260.000000) scale(0.100000,-0.100000)"
fill="#000000" stroke="none">
<path d="M351 1963 c71 -157 179 -453 179 -490 0 -12 9 -8 37 13 20 15 84 61
142 102 59 41 106 78 106 82 0 21 -377 299 -472 349 -21 11 -21 9 8 -56z"/>
<path d="M1173 1796 c-195 -102 -380 -217 -555 -349 -118 -87 -328 -262 -328
-272 0 -2 42 16 93 39 202 94 406 155 612 181 66 9 140 19 164 23 l44 7 74
220 c40 121 73 223 73 227 0 14 -14 8 -177 -76z"/>
<path d="M1404 1809 c-3 -5 -16 -40 -29 -78 l-23 -68 167 -6 c300 -10 550 -72
804 -196 64 -32 117 -57 117 -56 0 7 -193 127 -270 168 -206 111 -451 194
-683 232 -43 7 -80 8 -83 4z"/>
<path d="M1292 1483 c-12 -38 -22 -73 -22 -78 0 -4 45 -5 99 -2 271 17 598
-50 845 -172 52 -25 92 -43 90 -39 -11 17 -199 126 -302 176 -192 91 -421 156
-622 177 l-65 7 -23 -69z"/>
<path d="M1065 1348 c-195 -20 -450 -91 -638 -177 -92 -42 -301 -161 -294
-167 2 -2 26 3 53 11 171 50 251 59 504 59 217 0 257 -2 350 -22 199 -43 397
-115 549 -200 l64 -36 -22 40 c-38 67 -143 209 -212 286 -78 87 -230 219 -250
217 -8 -1 -54 -6 -104 -11z"/>
</g>
</svg>
